<?xml version="1.0" encoding="UTF-8"?>
<svg fill="none" viewBox="0 0 224 316" xmlns="http://www.w3.org/2000/svg">
<path d="m69.674 152.28v-2.078c0-0.04-0.0327-0.352 0.0753-0.252 0.2697 0.25 0.4787 0.542 0.6116 0.888 0.1589 0.413 0.2072 0.859 0.192 1.299-0.0048 0.139-0.0046 0.373-0.1675 0.421-0.6079 0.181-1.4627 0.514-1.9384-0.049-0.4898-0.579-0.8509-1.841-0.0715-2.337 0.6059-0.386 1.4805-0.284 1.993 0.196 0.2609 0.244 0.3735 0.467 0.2465 0.828-0.1132 0.321-0.2935 0.632-0.399 0.948" stroke="#000" stroke-linecap="round" stroke-width="5"/>
<path d="m70.127 163.19c-0.1653 0-0.3548 0.03-0.499-0.067-0.2479-0.166-0.328-0.729-0.1626-0.977 0.116-0.175 0.4237-0.144 0.6025-0.106 0.3152 0.067 0.5245 0.231 0.6376 0.534 0.1688 0.453-0.1004 0.868-0.5711 0.941-0.3268 0.051-0.7861 0.122-1.0701-0.079-0.3718-0.265-0.4344-0.72-0.4344-1.144 0-0.327 0.0151-0.689 0.2736-0.925 0.2714-0.247 0.7806-0.24 1.1274-0.201 0.7195 0.08 0.7282 0.858 0.7282 1.421 0 0.468-0.3869 0.949-0.7873 1.168-0.3202 0.176-0.9258 0.251-1.0757-0.199" stroke="#000" stroke-linecap="round" stroke-width="5"/>
<path d="m125.5 76c0 32.197-27.42 58.5-61.5 58.5s-61.5-26.303-61.5-58.5c0-32.036 31.245-59 65.5-59 33.841 0 57.5 26.564 57.5 59z" stroke="#000" stroke-width="5"/>
<path d="m44.11 71.19c-1.1727 1.1727-4.4526 4.9989-6.423 3.7424-1.1525-0.7349-1.4749-3.5955 0.1915-3.8643 1.3768-0.222 4.084-0.7744 4.5431 1.0618 0.1818 0.7272 0.0973 0.94-0.6615 0.94-0.6778 0-1.1749-0.6064-1.6188-1.0618-0.8628-0.8852-1.2286-1.9403-1.201-3.168 0.0277-1.2321 1.7326-2.328 2.8547-1.5666 1.3953 0.9468 1.2184 2.7914 1.2184 4.2646 0 1.1321-0.0409 2.5895-1.4795 2.6284-1.2836 0.0347-3.2491 0.59-4.0036-0.8007-0.7918-1.4594-0.8556-4.3419 0.6963-5.3961 1.1153-0.7575 3.0611-1.7928 4.4387-1.7928 1.4442 0 2.2628 2.6765 2.5414 3.7598 0.4354 1.6935 0.1988 3.4535-1.3752 4.5431-0.8745 0.6055-4.0687 1.4318-4.9783 0.5222-1.3156-1.3156-1.1386-3.431-0.9921-5.1523 0.0746-0.8774 0.8685-3.6564 2.0191-3.8208 1.0441-0.1491 2.3466-0.0864 3.3595 0.1567 1.0216 0.2451 1.1443 0.9523 1.4274 1.8016 0.632 1.8961 0.5396 4.0393 0.5396 6.0227 0 0.877-0.5938 1.9857-1.4883 2.1845-1.0108 0.2246-1.7757 0.6353-2.8112 0.6353-1.3548 0-2.1535-0.6196-2.9852-1.6362-1.239-1.5143-1.0183-3.3212-1.0183-5.1872 0-0.8113 0.3745-1.2712 0.7137-1.9495 0.2124-0.4249 0.9032-1.4267 1.3229-1.5666" stroke="#000" stroke-linecap="round" stroke-width="5"/>
<path d="m101.88 69.346c-1.047 1.2867-3.9174 5.4286-6.0061 4.3806-1.2217-0.6131-1.8353-3.4256-0.2053-3.8636 1.3468-0.3619 3.9833-1.1886 4.6284 0.5909 0.255 0.7048 0.193 0.9251-0.5621 1.0028-0.6743 0.0694-1.2309-0.4829-1.7191-0.8904-0.9489-0.7922-1.4209-1.8043-1.5192-3.0284-0.0986-1.2285 1.4852-2.4932 2.6793-1.8507 1.4851 0.7989 1.4981 2.6519 1.6491 4.1174 0.116 1.1262 0.224 2.5801-1.2029 2.7661-1.2732 0.166-3.1715 0.9196-4.0645-0.3865-0.9371-1.3706-1.2958-4.2314 0.14-5.439 1.0318-0.8677 2.8614-2.0969 4.2317-2.238 1.4367-0.1479 2.5247 2.4307 2.9127 3.4798 0.607 1.64 0.552 3.4149-0.902 4.6601-0.808 0.6918-3.9009 1.8409-4.8989 1.0293-1.4434-1.174-1.484-3.2964-1.5146-5.0237-0.0156-0.8804 0.4895-3.7261 1.6172-4.0074 1.0233-0.2553 2.3254-0.3264 3.3583-0.1883 1.041 0.1393 1.235 0.8302 1.604 1.646 0.823 1.8213 0.95 3.9628 1.154 5.9357 0.089 0.8724-0.388 2.0361-1.257 2.3255-0.983 0.327-1.701 0.8138-2.7315 0.9199-1.3477 0.1388-2.2056-0.3958-3.1371-1.3219-1.3876-1.3795-1.3531-3.1995-1.5442-5.0556-0.0831-0.807 0.2424-1.3029 0.5103-2.0124 0.1678-0.4444 0.7523-1.5117 1.1555-1.6938" stroke="#000" stroke-linecap="round" stroke-width="5"/>
<path d="m59.217 75.662c0.4775 0.0531 0.8963 0.7222 1.2199 1.0235 0.7157 0.6663 1.4905 1.2309 2.2743 1.8091 0.9737 0.7183 1.9766 1.5167 2.9154 2.2847 1.1704 0.9577 2.4947 1.3957 4.0111 1.3957 1.928 0 3.6813-0.4073 5.3034-1.4887 2.1878-1.4585 3.2336-3.3038 4.373-5.5826" stroke="#000" stroke-linecap="round" stroke-width="5"/>
<path d="m47.434 134.8c-1.9244 2.139-3.2783 4.299-4.6824 6.795-0.6714 1.194-1.3857 2.329-2.1284 3.485-0.646 1.004-1.9494 2.503-2.2702 3.626-0.3474 1.215-1.6547 2.093-1.9865 3.421-0.401 1.604-1.8029 3.306-2.5541 4.808-1.3263 2.653-2.984 5.218-4.5405 7.726-4.0842 6.58-6.9365 13.778-10.374 20.653-1.6685 3.337-3.2359 6.548-4.7297 9.995-0.7775 1.795-1.6819 3.452-2.3333 5.313-0.3698 1.057-1.2928 2.629-1.2928 3.705" stroke="#000" stroke-linecap="round" stroke-width="5"/>
<path d="m10.542 204.04c0 5.239-3.1457 14.666 2.8379 17.658 4.1115 2.056 10.38 6.017 14.615 1.782 0.9093-0.91 1.6475-1.963 2.5541-2.87 0.901-0.901 2.4372-2.706 2.7117-3.941 0.8093-3.642 1.6709-7.377 2.2387-11.068 0.9758-6.342 2.3004-12.716 3.5631-19.029 0.7772-3.886 1.5608-8.087 1.5608-12.045" stroke="#000" stroke-linecap="round" stroke-width="5"/>
<path d="m13.122 202.7c0.1857 0.31 0.4822 0.57 0.7209 0.837 0.671 0.751 1.3602 1.473 2.1147 2.141 1.1448 1.013 2.4366 1.93 3.8848 2.455 1.8229 0.662 3.6755 1.237 5.5746 1.636 1.2132 0.254 2.4159 0.231 3.6499 0.231 0.9158 0 1.8244 0.015 2.7391 0.055 0.1199 5e-3 0.4899 0.066 0.5503-0.055" stroke="#000" stroke-linecap="round" stroke-width="5"/>
<path d="m34.207 213.1v20.195 8.111c0 3.559 0.2322 7.194-0.0731 10.736-0.2992 3.47-0.2041 6.995-0.3739 10.476-0.0655 1.343-0.2246 2.686-0.2763 4.031-0.0467 1.213 0.3877 3.149-0.1544 4.234" stroke="#000" stroke-linecap="round" stroke-width="5"/>
<path d="m33.475 271.32v15.92c0 4.176-0.7968 8.475 0.1137 12.573 0.7962 3.583 3.4176 6.105 5.5914 8.883 0.7868 1.005 1.8447 1.812 3.007 2.34 0.9883 0.449 2.3671 0.22 3.4296 0.22 2.0724 0 4.0198-1.944 5.3394-3.365 0.4887-0.526 1.3557-0.901 1.7473-1.471 0.3362-0.489 0.6202-1.07 0.8858-1.601 0.8448-1.69 0.691-3.48 0.9184-5.299 0.4366-3.493-0.1791-7.131 0.0406-10.646 0.1697-2.715 0.577-5.48 0.577-8.192" stroke="#000" stroke-linecap="round" stroke-width="5"/>
<path d="m55.126 280.68c0-3.696-0.2502-7.505 0.5526-11.118 0.3973-1.788 0.5558-3.704 0.7315-5.526 0.1913-1.986-0.2272-4.058 0.065-6.03 0.4331-2.924 0.0059-6.204 0.8777-9.038 0.5497-1.786 0.295-4.052 1.1378-5.737" stroke="#000" stroke-linecap="round" stroke-width="5"/>
<path d="m58.49 243.24c0.8787 0 2.0279-1.517 2.8526-1.975 0.5245-0.292 1.3768-0.447 1.9667-0.52 2.7002-0.338 5.4234-0.908 8.127-1.309 1.4444-0.214 2.8446-0.292 4.3073-0.292 0.6648 0 1.8755-0.229 2.495 0.081 1.1851 0.593 1.6091 0.93 1.6091 2.267 0 1.062 0.0889 2.164 0.2601 3.211 0.2113 1.291 0.1263 2.645 0.3576 3.917 0.1845 1.015 0.26 2.102 0.26 3.137 0 2.032 0.2679 4.051 0.2926 6.079 0.0569 4.67 0.5851 9.328 0.5851 14.011 0 2.898 0.1463 5.82 0.1463 8.696" stroke="#000" stroke-linecap="round" stroke-width="5"/>
<path d="m81.505 279.93c0 4.212-0.07 8.295 0.6399 12.453 0.7477 4.379 1.7953 8.682 3.2472 12.885 1.1408 3.302 3.3357 5.462 6.4064 7.054 1.9995 1.037 5.1059 1.298 7.1263 0.288 1.8214-0.911 2.9464-2.307 4.1754-3.887 1.777-2.285 2.172-5.121 2.415-7.918 0.316-3.632-0.112-7.371-0.112-11.021v-14.893" stroke="#000" stroke-linecap="round" stroke-width="5"/>
<path d="m94.92 163.25c0 11.295 2.6622 22.054 5.0482 33.03 0.996 4.58 1.671 9.227 1.875 13.926 0.252 5.8 1.808 11.548 2.292 17.357 0.242 2.904 0.818 5.825 0.881 8.734 0.053 2.419 0.033 4.771 0.273 7.163 0.609 6.091-0.606 12.359 0.08 18.446 0.276 2.45 0.513 4.635 0.513 7.068 0 0.792-0.05 5.073-0.577 5.336" stroke="#000" stroke-linecap="round" stroke-width="5"/>
<path d="m34.63 213.15c2.1076 0.234 3.9267 2.078 5.9136 2.741 2.3767 0.792 4.6791 1.7 7.0675 2.452 3.4151 1.075 7.5324 1.244 11.09 1.426 4.0126 0.206 8.0481 0.045 11.987-0.721 6.1865-1.203 12.459-2.274 18.51-4.039 3.7422-1.091 6.9882-3.243 10.625-4.455" stroke="#000" stroke-linecap="round" stroke-width="5"/>
<path d="m71.606 219.19v4.723c0 0.581-0.1583 1.414 0.0054 1.986 0.1279 0.448 0.0729 1.08 0.2845 1.503" stroke="#000" stroke-linecap="round" stroke-width="5"/>
<path d="m51.456 135.69c0.2322 0.29 0.3564 0.728 0.5592 1.051 0.6127 0.975 1.2498 1.995 1.9941 2.876 1.0765 1.275 2.8736 2.609 4.4192 3.227 1.671 0.669 3.4853 0.795 5.2479 1.091 1.5784 0.266 3.1873 0.262 4.7831 0.243 2.093-0.026 4.1872-1.265 5.962-2.243 1.3531-0.746 2.3847-1.498 3.2943-2.735 0.8318-1.132 2.925-3.225 2.1153-4.844" stroke="#000" stroke-linecap="round" stroke-width="5"/>
<path d="m81.87 133.95c4.2867 3.879 8.9011 6.783 14.58 7.894 1.7655 0.345 3.9759 0.255 5.7809 0.255 1.667 0 3.17-0.106 4.806-0.418 1.219-0.232 2.254-1.09 3.459-1.416 1.118-0.302 1.862-1.188 2.926-1.602 1.013-0.394 4.12-1.252 4.597-2.205" stroke="#000" stroke-linecap="round" stroke-width="5"/>
<path d="m97.124 167.17c5.1775 0 10.438-0.209 15.568-0.209 1.501 0 2.99-0.836 4.492-0.836" stroke="#000" stroke-linecap="round" stroke-width="5"/>
<path d="m118.24 136.31c1.237-0.068 2.744-1.17 3.646-1.982 0.717-0.645 1.547-1.189 2.301-1.797 0.415-0.334 0.835-0.835 1.2-1.229 0.412-0.443 0.86-0.843 1.252-1.304 0.914-1.072 1.781-2.172 2.765-3.182 0.931-0.956 1.656-2.1 2.562-3.078 0.74-0.799 1.515-1.64 2.134-2.533 0.802-1.16 2.667-1.662 3.13-3.049" stroke="#000" stroke-linecap="round" stroke-width="5"/>
<path d="m137.23 118.16c0.043-0.431 0.593-0.846 0.834-1.171 0.477-0.645 0.944-1.288 1.38-1.96 0.698-1.076 1.596-1.982 2.191-3.13 0.493-0.951 1.165-1.863 1.762-2.747 0.507-0.751 0.796-1.416 1.09-2.255 0.748-2.138-0.712-4.492-2.458-5.739-2.095-1.4963-4.345-1.6415-6.515-0.145-3.817 2.633-5.692 7.372-5.692 11.877 0 1.66 0.539 3.412 0.985 5.003 0.292 1.041 0.39 2.277 0.997 3.188" stroke="#000" stroke-linecap="round" stroke-width="5"/>
<path d="m144.53 101.15c1.351-2.7013 2.868-5.3434 4.058-8.1205 0.7-1.6325 1.255-3.3102 1.89-4.9676 1.241-3.2415 3.127-6.212 4.799-9.2397 2.397-4.341 4.419-8.9224 6.568-13.39 0.948-1.9723 2.131-3.8384 2.822-5.9125" stroke="#000" stroke-linecap="round" stroke-width="5"/>
<path d="m163.94 58.791c-0.677-1.2793-1.849-2.3366-2.707-3.4953-0.525-0.7092-0.925-1.4708-1.548-2.1157-0.853-0.8835-1.511-2.0892-2.11-3.1533-0.721-1.2823-1.491-2.5561-2.167-3.8605-0.708-1.3646-1.285-2.7647-1.902-4.1735-0.58-1.3271-0.825-2.7935-1.252-4.1736-0.236-0.7657-0.497-1.6544-0.62-2.4519-0.067-0.4354-0.214-1.7448-0.214-1.3042" stroke="#000" stroke-linecap="round" stroke-width="5"/>
<path d="m151.42 34.063v-1.4839c0-1.323 0.451-2.5347 0.707-3.8141 0.206-1.0298 0.452-2.0599 0.73-3.0838 0.216-0.7944 0.563-1.5387 0.754-2.3418 0.459-1.935 1.514-3.7687 2.712-5.3444 1.696-2.2293 3.544-4.2907 5.507-6.2835 1.587-1.6109 3.082-3.1466 5.136-4.1735 2.059-1.0298 4.284-1.7691 6.364-2.7707 0.571-0.27494 1.223-0.45051 1.821-0.6724 0.787-0.29253 1.588-0.64451 2.434-0.70718 0.302-0.02239 0.201 0.08671 0.441 0.31301 0.24 0.22676 0.549 0.4768 0.73 0.75355 0.363 0.55475 0.694 1.4114 0.73 2.0636 0.02 0.34944 0.209 0.67929 0.209 1.0434 0 0.96758-0.589 2.0222-0.939 2.8983-1.929 4.8229-5.378 8.9432-6.469 14.109-0.486 2.3037-0.73 4.6369-0.73 6.9906 0 1.1205 0.778 2.1966 1.692 2.8171 0.793 0.5382 1.702 0.8149 2.609 1.1245 1.386 0.4736 2.725 1.0914 4.15 1.4608 1.717 0.4452 3.482 0.9287 5.24 1.1709 1.853 0.2551 3.733 0.4455 5.402 1.3564" stroke="#000" stroke-linecap="round" stroke-width="5"/>
<path d="m190.65 39.489c1.253 0 2.629-0.1318 3.86 0.1275 0.798 0.1679 1.586 0.1855 2.4 0.1855 2.154 0 3.374-3.3841 3.965-4.9039 1.502-3.8635 3.001-7.7502 5.014-11.373 0.934-1.6819 2.169-3.3018 3.339-4.8227 0.386-0.5023 0.882-1.2183 1.141-1.8028 0.259-0.5817 0.853-1.025 1.252-1.5129" stroke="#000" stroke-linecap="round" stroke-width="5"/>
<path d="m211.62 15.387c1.8 0 2.779 1.9441 3.919 3.0838 1.579 1.5787 3.261 3.2304 4.092 5.3676 1.066 2.7398 1.275 5.8043 1.275 8.718 0 2.1077-0.127 4.1036-0.521 6.1791-0.155 0.8145-0.397 1.606-0.545 2.423-0.065 0.3559-0.29 0.6806-0.29 1.0433" stroke="#000" stroke-linecap="round" stroke-width="5"/>
<path d="m219.03 43.662c-0.041 0.7491-0.53 1.4594-0.887 2.0925-0.585 1.0413-1.226 2.1534-1.982 3.078-0.531 0.6488-1.005 1.4238-1.461 2.1331-0.412 0.6421-0.977 1.1548-1.356 1.8259-0.442 0.7825-1.134 1.3845-1.675 2.0926-0.679 0.8869-1.487 1.7584-2.365 2.4461-0.867 0.6785-1.724 1.2978-2.667 1.8549-0.965 0.5706-2.048 0.9699-3.049 1.4839-2.01 1.0329-4.004 1.7636-6.15 2.4577-2.168 0.7015-4.414 1.0521-6.683 1.3043-2.415 0.2683-4.628 1.3506-7.095 1.3506" stroke="#000" stroke-linecap="round" stroke-width="5"/>
<path d="m182.51 67.034c0 2.4739-1.361 5.0813-2.318 7.3268-0.852 1.9976-1.785 3.9975-2.429 6.0748-0.473 1.5234-0.998 3.0276-1.623 4.4981-0.921 2.1638-1.562 4.4353-2.533 6.5791-0.821 1.8109-1.455 3.8081-1.942 5.7327-0.366 1.447-0.601 2.7283-1.675 3.8024" stroke="#000" stroke-linecap="round" stroke-width="5"/>
<path d="m169.68 101.99c0 1.108-0.28 2.335-0.621 3.38-0.212 0.65-0.314 1.432-0.585 2.052-0.43 0.982-0.556 2.067-1.032 3.02-0.423 0.847-0.761 1.749-1.182 2.608-0.387 0.787-0.771 1.678-1.067 2.504-0.139 0.389-0.417 0.832-0.417 1.252" stroke="#000" stroke-linecap="round" stroke-width="5"/>
<path d="m166.13 116.28c0.703 0 1.572-0.146 2.243 0.058 0.555 0.169 1.045 0.575 1.566 0.823 0.534 0.256 1.208 0.722 1.64 1.125 1.125 1.051 2.493 1.896 3.472 3.101 0.985 1.213 1.228 2.785 1.565 4.284 0.585 2.597 0.031 5.662-0.84 8.127-0.69 1.95-1.982 3.638-3.542 4.967-2.237 1.906-4.946 3.147-7.878 3.368-2.689 0.203-5.536-0.251-7.013-2.713-1.728-2.88-2.586-5.967-2.586-9.321 0-2.022 0.59-4.385 1.461-6.202 0.635-1.323 1.21-2.503 2.139-3.646 1.009-1.242 2.656-2.51 4.33-2.51" stroke="#000" stroke-linecap="round" stroke-width="5"/>
<path d="m157.57 143.1c0 2.138-0.86 4.526-1.722 6.475-1.018 2.301-1.887 4.688-3.032 6.933-1.031 2.021-1.999 4.074-3.014 6.103-0.97 1.941-1.694 4.003-2.666 5.948-1.31 2.619-2.455 5.54-4.591 7.616-1.992 1.937-4.075 3.446-6.573 4.696" stroke="#000" stroke-linecap="round" stroke-width="5"/>
<path d="m136.18 181.18h-5.298c-0.758 0-1.674-0.025-2.4-0.232-2.507-0.717-4.842-1.96-7.013-3.42-1.039-0.699-1.849-1.737-2.551-2.759-0.443-0.646-0.924-1.275-1.078-2.064-0.229-1.171-0.496-2.328-0.73-3.501-0.096-0.479-0.018-2.42-0.441-2.632" stroke="#000" stroke-linecap="round" stroke-width="5"/>
<path d="m116.78 166.57c0-1.45-0.313-2.859-0.313-4.301 0-2.041 0.306-3.948 0.835-5.924 0.73-2.729 1.95-5.344 3.316-7.802 0.698-1.257 1.272-2.591 1.901-3.884 0.303-0.622 0.648-2.254 1.356-2.608" stroke="#000" stroke-linecap="round" stroke-width="5"/>
<path d="m123.87 142.16c0-1.414 0.265-2.453 0.789-3.733 0.356-0.87 0.968-1.737 1.217-2.631 0.263-0.946 1.068-1.752 1.519-2.609 0.435-0.827 0.885-1.685 1.379-2.481 0.548-0.883 0.971-1.854 1.565-2.713 0.523-0.754 0.837-1.764 1.461-2.422 0.953-1.007 1.572-2.34 2.4-3.444" stroke="#000" stroke-linecap="round" stroke-width="5"/>
<path d="m128.57 157.5c0.096-0.483 1.028-1.197 1.414-1.513 0.579-0.473 1.214-0.742 1.924-0.939 1.786-0.496 3.775-0.069 5.449 0.551 1.143 0.423 1.694 2.134 2.214 3.101 0.382 0.708 0.371 1.985 0.371 2.765 0 1.428-0.207 2.614-0.707 3.964-0.532 1.44-1.412 3.139-2.689 4.058-0.816 0.587-1.932 0.664-2.87 0.899-1.022 0.255-2.062-0.035-3.02-0.366-1.301-0.449-2.575-1.087-3.547-2.086-0.636-0.654-1.007-1.784-1.148-2.667-0.179-1.119-0.289-2.553 0.052-3.652 0.543-1.749 1.354-3.775 3.078-4.637" stroke="#000" stroke-linecap="round" stroke-width="5"/>
</svg>